<svg width="36" height="36" viewBox="0 0 36 36" fill="none" xmlns="http://www.w3.org/2000/svg">
<path d="M13.3079 13.4789C14.9695 13.1962 16.1911 11.6808 16.3641 9.87051C16.5397 8.02951 16.9089 0.631256 14.1355 1.10186C6.94122 2.32371 7.54637 14.4573 13.3079 13.4789ZM22.7867 13.4789C28.5628 14.4573 28.9689 2.32371 21.7546 1.10115C18.9742 0.630542 19.4641 8.0288 19.6691 9.86979C19.8725 11.6808 21.1204 13.1962 22.7867 13.4789ZM10.3954 19.1955C10.3875 18.2328 10.0368 17.3602 9.47816 16.7253C8.55787 15.5356 5.64372 13.1297 4.9382 13.746C3.46551 15.0357 3.5394 18.21 4.45171 20.5166C4.92142 21.7991 6.03788 22.7011 7.33405 22.7011C9.04013 22.7011 10.4113 21.1314 10.3954 19.1955ZM31.1586 13.746C30.4444 13.1297 27.5697 15.5356 26.669 16.7253C26.1207 17.3602 25.7837 18.2328 25.7916 19.1955C25.8074 21.1314 27.2057 22.7011 28.9104 22.7011C30.2073 22.7011 31.3097 21.7991 31.7583 20.5166C32.6307 18.21 32.6539 15.0357 31.1586 13.746ZM25.4379 24.6556C22.8019 23.3466 22.8627 20.8258 22.2468 18.5256C21.7568 16.691 20.0639 15.3342 18.0621 15.3342C17.1336 15.3317 16.2318 15.6306 15.4922 16.1858C14.7526 16.7411 14.2151 17.5228 13.9604 18.4135C13.3393 20.6144 13.7452 23.1767 10.8957 24.6385C8.57734 25.3961 7.64517 26.5016 7.66662 29.116C7.68404 31.2398 9.52589 33.5135 11.8813 33.7963C14.5097 34.1919 16.5537 33.6749 18.2048 32.7294C19.8716 33.6749 21.9225 34.1912 24.5487 33.7963C26.8981 33.5135 28.7034 31.2483 28.6859 29.116C28.6633 26.4445 27.7739 25.449 25.4379 24.6556ZM22.3668 27.8506H19.6452L19.6722 30.707H16.7043L16.6851 27.8506H13.7971L13.7737 24.9941H16.6624L16.6347 22.1376H19.6027L19.6225 24.9941H22.3434L22.3668 27.8506Z" fill="black"/>
</svg>
