<svg width="36" height="36" viewBox="0 0 36 36" fill="none" xmlns="http://www.w3.org/2000/svg">
<path fill-rule="evenodd" clip-rule="evenodd" d="M18.5391 4.13294C18.3236 4.06436 18.0907 4.08032 17.8878 4.17757C17.7873 4.22428 17.6983 4.29238 17.6271 4.37716C17.5559 4.46194 17.504 4.56136 17.4753 4.66852L16.7895 7.39705C16.5499 8.35063 16.1979 9.27153 15.7408 10.1404C15.0302 11.4898 13.9482 12.5268 12.9436 13.3986L10.8193 15.2434C10.6568 15.3846 10.5305 15.5626 10.4506 15.7628C10.3708 15.9629 10.3398 16.1796 10.3601 16.3949L11.6828 30.3693C11.715 30.7087 11.8731 31.0248 12.1258 31.2553C12.3786 31.4858 12.7078 31.614 13.0484 31.6146H19.9652C24.6309 31.6146 28.5365 28.3683 29.2551 24.0077L30.2542 17.9377C30.2866 17.7421 30.2758 17.5414 30.2226 17.3497C30.1694 17.158 30.075 16.9799 29.9461 16.8278C29.8172 16.6757 29.6568 16.5534 29.4762 16.4694C29.2956 16.3854 29.0991 16.3417 28.9006 16.3414H21.1923C19.7387 16.3414 18.6226 15.0381 18.8459 13.6039L19.783 7.58748C19.9113 6.76341 19.8659 5.92019 19.6496 5.11187C19.5887 4.89788 19.4747 4.70233 19.3184 4.5434C19.1621 4.38448 18.9684 4.26733 18.7554 4.20286L18.5391 4.13294ZM16.9013 2.16762C17.6179 1.8215 18.4423 1.76452 19.2046 2.00844L19.4209 2.07836C20.58 2.4503 21.4891 3.3727 21.8053 4.55099C22.1015 5.66085 22.1646 6.81831 21.9879 7.949L21.0508 13.9654C21.0479 13.9832 21.049 14.0014 21.0538 14.0187C21.0587 14.0361 21.0673 14.0522 21.0791 14.066C21.0908 14.0797 21.1054 14.0908 21.1218 14.0983C21.1382 14.1059 21.156 14.1098 21.174 14.1097H28.8808C31.1125 14.1097 32.8191 16.1212 32.4563 18.3186L31.4572 24.3886C30.553 29.8754 25.6758 33.8462 19.9835 33.8462H13.0668C12.1675 33.8454 11.2985 33.5076 10.6311 32.8995C9.96367 32.2914 9.54642 31.4571 9.46166 30.5612L8.13744 16.5868C8.08361 16.0193 8.16524 15.4482 8.3756 14.9206C8.58595 14.393 8.91903 13.9238 9.34742 13.5518L11.4747 11.707C12.4423 10.868 13.2554 10.0542 13.7623 9.08861C14.1387 8.37554 14.4281 7.61937 14.6246 6.83617L15.3104 4.10913C15.4177 3.68824 15.6156 3.29653 15.8903 2.96124C16.1651 2.62595 16.5101 2.35513 16.9013 2.16762ZM4.53155 14.1112C4.81898 14.0987 5.10106 14.1977 5.31887 14.3876C5.53668 14.5775 5.67337 14.8436 5.70039 15.1303L7.28068 31.8466C7.30717 32.0956 7.28267 32.3469 7.20869 32.5852C7.13471 32.8235 7.01279 33.0439 6.85039 33.2328C6.68798 33.4217 6.4885 33.5752 6.26412 33.6839C6.03974 33.7926 5.79518 33.8543 5.54536 33.8651C5.29555 33.876 5.04573 33.8357 4.81117 33.7469C4.5766 33.6581 4.36221 33.5225 4.1811 33.3485C3.99998 33.1745 3.85594 32.9657 3.75777 32.7349C3.65959 32.504 3.60935 32.2559 3.61011 32.0058L3.47246 15.2256C3.46983 14.9377 3.57857 14.6609 3.77593 14.4529C3.9733 14.245 4.24404 14.1235 4.53155 14.1112Z" fill="black"/>
</svg>
