<svg width="36" height="36" viewBox="0 0 36 36" fill="none" xmlns="http://www.w3.org/2000/svg">
<path d="M32.7924 7.43878H3.03655C2.64196 7.43878 2.26482 7.59553 1.98809 7.87453C1.71137 8.15354 1.55772 8.53195 1.56096 8.92653L1.60978 14.8775C1.61992 15.7983 1.91463 16.6958 2.45351 17.4469C2.99239 18.198 3.74906 18.766 4.61978 19.0729L4.73182 32.7304C4.73505 33.125 4.89491 33.5034 5.17621 33.7824C5.45752 34.0614 5.83723 34.2182 6.23182 34.2182H30.0365C30.4311 34.2182 30.8083 34.0614 31.085 33.7824C31.3617 33.5034 31.5154 33.125 31.5121 32.7304L31.4001 19.0729C32.2658 18.766 33.0131 18.198 33.5397 17.4469C34.0662 16.6958 34.3462 15.7983 34.3413 14.8775L34.2924 8.92653C34.2892 8.53195 34.1294 8.15354 33.848 7.87453C33.5667 7.59553 33.187 7.43878 32.7924 7.43878ZM22.4023 10.4143H25.3779L25.4145 14.8775C25.4177 15.2721 25.2641 15.6505 24.9874 15.9295C24.7106 16.2085 24.3335 16.3652 23.9389 16.3652C23.5443 16.3652 23.1646 16.2085 22.8833 15.9295C22.602 15.6505 22.4421 15.2721 22.4389 14.8775L22.4023 10.4143ZM16.4511 10.4143H19.4267L19.4633 14.8775C19.4665 15.2721 19.3129 15.6505 19.0362 15.9295C18.7595 16.2085 18.3823 16.3652 17.9877 16.3652C17.5931 16.3652 17.2134 16.2085 16.9321 15.9295C16.6508 15.6505 16.491 15.2721 16.4877 14.8775L16.4511 10.4143ZM10.4999 10.4143H13.4755L13.5121 14.8775C13.5154 15.2721 13.3617 15.6505 13.085 15.9295C12.8083 16.2085 12.4311 16.3652 12.0365 16.3652C11.642 16.3652 11.2622 16.2085 10.9809 15.9295C10.6996 15.6505 10.5398 15.2721 10.5365 14.8775L10.4999 10.4143ZM6.08537 16.3652C5.69078 16.3652 5.31107 16.2085 5.02976 15.9295C4.74846 15.6505 4.5886 15.2721 4.58537 14.8775L4.54875 10.4143H7.52434L7.56096 14.8775C7.56419 15.2721 7.41055 15.6505 7.13382 15.9295C6.85709 16.2085 6.47995 16.3652 6.08537 16.3652ZM21.0854 31.2427H15.1342L15.1098 28.2672C15.1033 27.4781 15.4106 26.7212 15.964 26.1632C16.5175 25.6052 17.2718 25.2917 18.0609 25.2917C18.8501 25.2917 19.6095 25.6052 20.1722 26.1632C20.7348 26.7212 21.0545 27.4781 21.0609 28.2672L21.0854 31.2427ZM28.5243 31.2427H24.0609L24.0365 28.2672C24.0236 26.6889 23.3842 25.1753 22.259 24.0592C21.1337 22.9432 19.6149 22.3162 18.0365 22.3162C16.4582 22.3162 14.9496 22.9432 13.8427 24.0592C12.7358 25.1753 12.1212 26.6889 12.1342 28.2672L12.1586 31.2427H7.6952L7.59537 19.0729C8.14058 18.87 8.64256 18.5673 9.07584 18.1803C9.90017 18.9122 10.9629 19.3168 12.0608 19.3168C13.1586 19.3168 14.2147 18.9122 15.027 18.1803C15.8513 18.9122 16.914 19.3168 18.0119 19.3168C19.1098 19.3168 20.1659 18.9122 20.9782 18.1803C21.8025 18.9122 22.8652 19.3168 23.9631 19.3168C25.061 19.3168 26.1171 18.9122 26.9294 18.1803C27.369 18.5673 27.876 18.87 28.4245 19.0729L28.5243 31.2427ZM31.3657 14.8775C31.3689 15.2721 31.2153 15.6505 30.9385 15.9295C30.6618 16.2085 30.2847 16.3652 29.8901 16.3652C29.4955 16.3652 29.1158 16.2085 28.8345 15.9295C28.5532 15.6505 28.3933 15.2721 28.3901 14.8775L28.3535 10.4143H31.3291L31.3657 14.8775ZM6.43407 4.46329H29.7924C30.187 4.46329 30.5642 4.30655 30.8409 4.02754C31.1176 3.74854 31.2713 3.37012 31.268 2.97555C31.2648 2.58097 31.1049 2.20256 30.8236 1.92355C30.5423 1.64455 30.1626 1.4878 29.768 1.4878H6.40966C6.01507 1.4878 5.63793 1.64455 5.36121 1.92355C5.08448 2.20256 4.93083 2.58097 4.93407 2.97555C4.93731 3.37012 5.09716 3.74854 5.37846 4.02754C5.65977 4.30655 6.03948 4.46329 6.43407 4.46329Z" fill="black"/>
</svg>
