<svg width="41" height="40" viewBox="0 0 41 40" fill="none" xmlns="http://www.w3.org/2000/svg">
<path fill-rule="evenodd" clip-rule="evenodd" d="M20.2433 10.4167C18.8067 10.4167 17.4242 10.9874 16.4 12.0032C15.3758 13.019 14.7938 14.3967 14.7821 15.8333C14.7703 17.2699 15.3297 18.6477 16.3372 19.6635C17.3447 20.6793 18.7178 21.25 20.1545 21.25C21.5911 21.25 22.9736 20.6793 23.9978 19.6635C25.022 18.6477 25.604 17.2699 25.6157 15.8333C25.6275 14.3967 25.0681 13.019 24.0606 12.0032C23.0531 10.9874 21.68 10.4167 20.2433 10.4167ZM17.2821 15.8333C17.2885 15.0598 17.6019 14.3179 18.1534 13.7709C18.7048 13.224 19.4493 12.9167 20.2228 12.9167C20.9964 12.9167 21.7358 13.224 22.2783 13.7709C22.8208 14.3179 23.122 15.0598 23.1157 15.8333C23.1093 16.6069 22.7959 17.3488 22.2444 17.8957C21.693 18.4427 20.9485 18.75 20.175 18.75C19.4014 18.75 18.662 18.4427 18.1195 17.8957C17.577 17.3488 17.2758 16.6069 17.2821 15.8333Z" fill="black"/>
<path fill-rule="evenodd" clip-rule="evenodd" d="M20.298 3.75C18.1186 3.74985 15.9748 4.33916 14.0937 5.45549C12.2127 6.57183 10.6645 8.17364 9.61303 10.0913C8.56159 12.0089 8.04608 14.1709 8.12111 16.3483C8.19614 18.5258 8.85891 20.6376 10.0392 22.46L5.66616 29.9267C5.54476 30.1346 5.48549 30.3726 5.49542 30.6122C5.50536 30.8519 5.58408 31.083 5.72219 31.2781C5.8603 31.4732 6.05197 31.6239 6.2743 31.7123C6.49663 31.8007 6.74024 31.8231 6.97603 31.7767L11.3399 30.92L12.7405 35.12C12.8159 35.3475 12.9556 35.548 13.1427 35.6973C13.3298 35.8466 13.5564 35.9384 13.7954 35.9618C14.0344 35.9852 14.2757 35.9392 14.4903 35.8292C14.7049 35.7192 14.8837 35.5499 15.0054 35.3417L19.3666 27.895C19.8548 27.9244 20.3446 27.9244 20.8333 27.895L25.0724 35.3417C25.1908 35.5499 25.367 35.7191 25.5799 35.8289C25.7928 35.9388 26.0333 35.9847 26.2727 35.9611C26.5121 35.9375 26.7402 35.8455 26.9297 35.696C27.1192 35.5466 27.262 35.346 27.341 35.1183L28.8056 30.9083L33.1586 31.775C33.3937 31.8218 33.638 31.7997 33.862 31.7115C34.0861 31.6233 34.2805 31.4725 34.4221 31.2774C34.5636 31.0823 34.6463 30.8509 34.6602 30.6111C34.6741 30.3713 34.6186 30.1331 34.5005 29.925L30.2516 22.46C31.4619 20.6374 32.1593 18.5255 32.27 16.3479C32.3807 14.1703 31.9005 12.0082 30.8803 10.0905C29.8601 8.17285 28.3379 6.57107 26.475 5.45485C24.612 4.33864 22.4777 3.74955 20.298 3.75ZM10.6153 15.8333C10.6361 13.2917 11.6658 10.8541 13.4778 9.0569C15.2899 7.25967 17.7358 6.25 20.2775 6.25C22.8193 6.25 25.2486 7.25967 27.0312 9.0569C28.8137 10.8541 29.8034 13.2917 29.7826 15.8333C29.7617 18.375 28.732 20.8126 26.92 22.6098C25.108 24.407 22.6621 25.4167 20.1203 25.4167C17.5786 25.4167 15.1492 24.407 13.3667 22.6098C11.5841 20.8126 10.5944 18.375 10.6153 15.8333ZM16.7436 27.4433C14.8522 26.8943 13.1282 25.8889 11.7224 24.515L9.21725 28.7933L11.9501 28.2567C12.247 28.1985 12.5542 28.2496 12.8146 28.4007C13.075 28.5518 13.2712 28.7925 13.3667 29.0783L14.2452 31.71L16.7436 27.4433ZM25.8889 31.7033L23.4638 27.4433C25.3641 26.8943 27.1046 25.8888 28.533 24.515L30.9647 28.7867L28.2391 28.2433C27.9421 28.1844 27.633 28.2357 27.3693 28.3874C27.1056 28.5392 26.9052 28.7812 26.8056 29.0683L25.8889 31.7033Z" fill="black"/>
</svg>
